<?xml version="1.0" encoding="utf-8"?>
<!-- Generator: Adobe Illustrator 15.1.0, SVG Export Plug-In . SVG Version: 6.00 Build 0)  -->
<!DOCTYPE svg PUBLIC "-//W3C//DTD SVG 1.1//EN" "http://www.w3.org/Graphics/SVG/1.1/DTD/svg11.dtd">
<svg version="1.1" id="Layer_1" xmlns="http://www.w3.org/2000/svg" xmlns:xlink="http://www.w3.org/1999/xlink" x="0px" y="0px"
	 width="595.28px" height="283.46px" viewBox="0 0 595.28 283.46" enable-background="new 0 0 595.28 283.46" xml:space="preserve">
<g>
	<path fill="#C7C8CA" d="M249.555,272.665c-1.358,2.822-4.748,4.008-7.568,2.648l-192.18-92.555
		c-2.821-1.357-4.006-4.746-2.647-7.566l79.394-164.854c1.359-2.821,4.747-4.006,7.567-2.648l192.18,92.555
		c2.82,1.358,4.006,4.747,2.648,7.568L249.555,272.665z"/>
	<g>
		<path fill="#808285" stroke="#808285" stroke-miterlimit="10" d="M328.557,108.628c-1.359,2.821-4.748,4.007-7.568,2.648
			l-192.18-92.554c-2.821-1.359-4.006-4.747-2.648-7.568l0.393-0.815c1.359-2.821,4.747-4.006,7.568-2.648l192.18,92.555
			c2.822,1.358,4.006,4.747,2.648,7.568L328.557,108.628z"/>
		<circle fill="#9E1C20" stroke="#9E1C20" stroke-miterlimit="10" cx="131.968" cy="13.575" r="4.282"/>
		<circle fill="#FFF200" stroke="#FFF200" stroke-miterlimit="10" cx="144.311" cy="19.258" r="4.282"/>
		<circle fill="#009356" stroke="#009444" stroke-miterlimit="10" cx="156.014" cy="25.276" r="4.282"/>
	</g>
</g>
<g>
	
		<rect x="304.859" y="45.758" transform="matrix(0.9087 -0.4174 0.4174 0.9087 -20.8173 188.2764)" fill="#A5A7AA" stroke="#CDCFD0" stroke-width="2" stroke-miterlimit="10" width="230.331" height="191.944"/>
	
		<rect x="269.918" y="53.4" transform="matrix(0.9087 -0.4174 0.4174 0.9087 7.7437 166.7464)" fill="#CDCFD0" stroke="#CDCFD0" stroke-width="2" stroke-miterlimit="10" width="230.331" height="24.54"/>
	<g>
		
			<rect x="453.196" y="13.316" transform="matrix(0.9087 -0.4174 0.4174 0.9087 32.4424 199.5108)" fill="#EF3B39" width="38.286" height="24.539"/>
		
			<rect x="428.581" y="34.72" transform="matrix(0.9087 -0.4174 0.4174 0.9087 22.723 185.6083)" fill="#CDCFD0" stroke="#A5A7AA" stroke-miterlimit="10" width="14.234" height="12.27"/>
		
			<rect x="427.89" y="39.18" transform="matrix(0.9087 -0.4174 0.4174 0.9087 20.7979 185.7269)" fill="#CDCFD0" stroke="#A5A7AA" stroke-miterlimit="10" width="14.234" height="12.27"/>
		<line fill="none" stroke="#A5A7AA" stroke-miterlimit="10" x1="402.886" y1="66.823" x2="416.993" y2="60.342"/>
	</g>
</g>
<text transform="matrix(1 0 0 1 169.5723 170.2822)" fill="#58595B" font-family="'Futura-Medium'" font-size="53.9978">OS Studio</text>
</svg>
